/* XPM */
static char *mili[] = {
/* columns rows colors chars-per-pixel */
"286 30 148 2 ",
"   c #000000",
".  c #080604",
"X  c #03070B",
"o  c #04090E",
"O  c #0B0B0B",
"+  c #16130E",
"@  c #060C14",
"#  c #060F19",
"$  c #07111D",
"%  c #0C131E",
"&  c #141414",
"*  c #11151A",
"=  c #1B1B1B",
"-  c #0A1625",
";  c #0C1827",
":  c #0B1728",
">  c #0C192B",
",  c #161B22",
"<  c #0E1E34",
"1  c #1D2022",
"2  c #1C232B",
"3  c #0F2139",
"4  c #1E2733",
"5  c #1F2834",
"6  c #10233C",
"7  c #242424",
"8  c #27292C",
"9  c #2B2B2B",
"0  c #31302E",
"q  c #232B35",
"w  c #242E3C",
"e  c #2F3236",
"r  c #2F3338",
"t  c #333333",
"y  c #32363C",
"u  c #3B3B3B",
"i  c #0F2644",
"p  c #112642",
"a  c #122945",
"s  c #142C4C",
"d  c #162F50",
"f  c #163155",
"g  c #18345A",
"h  c #1A385F",
"j  c #263343",
"k  c #2C3B4D",
"l  c #363B41",
"z  c #2C3C50",
"x  c #1B3A62",
"c  c #1D3E6A",
"v  c #314156",
"b  c #3C4959",
"n  c #1E416E",
"m  c #1F4373",
"M  c #22426D",
"N  c #3E4D62",
"B  c #3F5065",
"V  c #224573",
"C  c #244877",
"Z  c #214779",
"A  c #224A7E",
"S  c #444444",
"D  c #43474B",
"F  c #46484A",
"G  c #4B4B4B",
"H  c #404750",
"J  c #424952",
"K  c #4C4E51",
"L  c #4F5154",
"P  c #4E555E",
"I  c #535353",
"U  c #585756",
"Y  c #595856",
"T  c #5B5B5B",
"R  c #605F5C",
"E  c #62615E",
"W  c #415166",
"Q  c #435368",
"!  c #5C5F64",
"~  c #555E6A",
"^  c #5D6065",
"/  c #59636F",
"(  c #5D6673",
")  c #636363",
"_  c #6C6C6C",
"`  c #626A75",
"'  c #646E7A",
"]  c #6E7174",
"[  c #66707F",
"{  c #6F7378",
"}  c #747474",
"|  c #75797D",
" . c #7B7B7B",
".. c #244C82",
"X. c #26518B",
"o. c #29538B",
"O. c #275692",
"+. c #285693",
"@. c #2B5995",
"#. c #2D5D9C",
"$. c #2D5FA1",
"%. c #2E61A4",
"&. c #2E62A9",
"*. c #3062A3",
"=. c #316AB5",
"-. c #336DBB",
";. c #3470BE",
":. c #687381",
">. c #777B80",
",. c #797C81",
"<. c #3572C3",
"1. c #3875C7",
"2. c #3877C9",
"3. c #3978CD",
"4. c #7F8387",
"5. c #3E86E5",
"6. c #3F87E8",
"7. c #3F88E9",
"8. c #408BEE",
"9. c #428EF3",
"0. c #4390F6",
"q. c #4595FF",
"w. c #838383",
"e. c #888785",
"r. c #83868B",
"t. c #878B8F",
"y. c #8B8B8B",
"u. c #93918F",
"i. c #878B90",
"p. c #8A8E92",
"a. c #949494",
"s. c #9B9997",
"d. c #9C9C9C",
"f. c #A09E9B",
"g. c #A3A19E",
"h. c #A3A3A2",
"j. c #ABABAB",
"k. c #B1AFAD",
"l. c #B3B3B3",
"z. c #BBBBBB",
"x. c #C3C3C3",
"c. c #CBCBCB",
"v. c #D4D4D4",
"b. c #DBDBDB",
"n. c #E3E3E3",
"m. c #EDEDED",
"M. c #F5F5F5",
"N. c #FDFDFD",
/* pixels */
"q.q.q.q.q.q.q.q.q.q.q.q.q.q.q.q.q.q.q.q.q.q.q.q.q.q.q.q.q.q.q.q.q.q.q.q.q.q.q.q.q.q.q.q.q.q.q.q.q.q.q.q.q.q.q.q.q.q.q.q.7.7.9.9.8.8.9.0.q.q.q.q.q.q.q.q.q.q.q.q.q.q.q.q.q.q.q.q.q.q.q.q.q.q.q.q.q.q.q.q.q.q.q.q.q.q.q.q.q.q.q.q.q.q.q.q.q.q.q.q.q.q.q.q.q.q.q.q.q.q.q.q.q.q.q.q.q.q.7.8.8.8.7.9.7.q.q.q.q.q.q.q.q.q.q.q.q.q.q.q.q.q.q.q.7.7.8.8.8.9.7.q.q.q.q.q.q.q.q.q.q.q.q.q.q.q.q.q.q.q.q.q.q.q.q.q.q.q.q.q.q.q.q.q.q.q.q.q.q.q.q.q.q.q.q.q.7.8.8.8.8.9.8.0.q.q.q.q.q.q.q.q.q.q.q.q.q.q.q.q.q.9.8.8.9.9.8.8.9.q.q.q.q.q.q.q.q.q.q.q.q.q.q.q.q.q.q.q.q.q.q.q.q.q.q.q.q.q.q.q.q.q.q.q.q.q.",
"q.q.q.q.q.q.9.=.A A A A A A A =.0.q.q.q.q.q.q.q.q.q.q.q.q.q.q.q.q.q.q.q.q.q.q.q.q.q.q.q.q.q.q.q.q.q.q.q.q.q.q.q.q.0.%.< X X X X X X X < $.0.q.q.q.q.q.q.q.q.q.q.q.q.q.9.=.A A A A A A A =.9.q.q.q.q.q.q.q.q.q.q.q.q.q.q.q.q.q.q.q.q.q.q.q.q.q.q.q.q.q.q.q.q.q.q.q.q.q.q.q.q.q.0.$.< X X X X X X X < $.0.q.q.q.q.q.q.q.q.q.q.q.q.q.q.#.< X @ X X X X X < $.0.q.q.q.q.q.q.q.q.q.q.q.q.q.q.q.0.8.8.8.8.8.8.8.0.q.q.q.q.q.q.q.q.q.q.q.q.q.q.q.0.$.< X X X X X X X < %.0.q.q.q.q.q.q.q.q.q.q.q.q.q.7.h X X X X X X X X h 7.0.q.q.q.q.q.q.q.q.q.q.q.q.q.q.q.q.q.q.q.q.q.q.q.q.q.q.q.q.q.q.q.q.q.q.",
"q.q.q.q.q.-.;                   > -.q.q.q.q.q.q.q.q.q.q.q.q.q.q.q.q.q.q.q.0.q.q.q.q.q.q.q.q.q.q.q.q.q.q.q.q.q.q.0.s .                     s 9.q.q.q.q.q.q.q.q.q.q.q.-.;                   : -.q.q.q.q.q.q.q.q.q.q.q.q.q.q.q.q.q.q.q.q.q.q.q.q.q.q.q.q.q.q.q.q.q.q.q.q.q.q.q.0.d                       s 0.q.q.q.q.q.q.q.q.q.q.q.0.s                       s 9.q.q.q.q.q.q.q.q.q.q.q.q.q.$.< X X X X X X X < $.0.q.q.q.q.q.q.q.q.q.q.q.q.0.s                       s 9.q.q.q.q.q.q.q.q.q.q.0.-.                        -.q.q.q.q.q.q.q.q.q.q.q.q.q.q.q.q.q.q.q.q.q.q.q.q.q.q.q.q.q.q.q.q.q.q.",
"q.q.q.q.-..   & S u u u u u u &     =.q.q.q.q.q.q.q.q.q.q.q.q.q.q.q.q.0.A < h 8.q.q.q.q.q.q.q.q.q.q.q.q.q.q.q.0.V .   _ y.e. . . . .} U     s 9.q.q.q.q.q.q.q.q.q.;.X   & t t t t u t t &   X =.q.q.q.q.q.q.q.q.q.q.q.0.#.< h <.q.q.q.q.q.q.q.<.g < $.0.q.q.q.q.q.q.q.q.q.9.s .   )  .|  .| } } } U     V 0.q.q.q.q.q.q.q.q.q.0.s     Y } _ } ] } _ } U     m q.q.q.q.q.q.q.q.q.q.q.9.s                       s 9.q.q.q.q.q.q.q.q.q.q.9.s     U _ _ ] _ _ _ ] U     s 9.q.q.q.q.q.q.q.q.q.-.X   = _ _ _ _ _ _ _ _ =   X =.q.q.q.q.q.q.q.q.q.q.q.q.q.q.q.q.q.q.q.q.q.q.q.q.q.q.q.q.q.q.q.q.q.",
"q.q.q.=.X   = k.y. . . . . . .w.&   . -.q.q.q.q.q.q.q.q.q.q.q.q.q.q.9.a .     . =.q.q.q.q.q.q.q.q.q.q.q.q.q.q.8.    w.w.} ] } } } } ] _ T     a 9.q.q.q.q.q.q.q.0.>   & a._ _ _ _ ) ) E } &   X =.q.q.q.q.q.q.q.q.q.9.s         =.q.q.q.q.q.-.        s 0.q.q.q.q.q.q.q.9.s     } } }  . .| } } _ ) )     ;.q.q.q.q.q.q.q.q.9.s     T ) _ _ ) _ _ _ _ ) T     -.q.q.q.q.q.q.q.q.q.9.s     T  .} } | } } } Y     s 8.q.q.q.q.q.q.q.q.9.s     ) ! ) ) ) ) ) ) E ) T     s 9.q.q.q.q.q.q.0.-.X   & } ) ) ) ) ) ) ) ) _ =   . =.q.q.q.q.q.q.q.q.q.q.q.q.q.q.q.q.q.q.q.q.q.q.q.q.q.q.q.q.q.q.q.q.",
"q.q.-.X   = v.z.h.y.w. . . . . .w.&     &.q.q.q.q.q.q.q.q.q.q.q.q.q.d   . T =     8.q.q.q.q.q.q.q.q.q.q.q.q.q.;.  + h.4.} } } } } } } } } )     s 9.q.q.q.q.q.q.-.  . x.a. ._ _ ) ) E ) ) _ &     =.q.q.q.q.q.q.q.0.V     Y 1     <.q.q.q.<.    = U     m q.q.q.q.q.q.0.m     w. .y.a.u.s.a.y.w.} } } O   ` V 0.q.q.q.q.q.q.m     ) _ _ ) _ _ _ ) _ _ _ } +   ` V 0.q.q.q.q.q.q.9.s     } w.} } _ _ _ _ _ _ )     s 8.q.q.q.q.q.q.q.m     ) } _ ) ) ) ) E ) ) ) _ T     a 0.q.q.q.q.q.8.    & d.e.,.} _ } ) _ ) _ ) } &     -.q.q.q.q.q.q.q.q.q.q.q.q.q.q.q.q.q.q.q.q.q.q.q.q.q.q.q.q.q.q.q.",
"q.0.>   1 m.n.c.z.j.s.r.w. . . . .w.&   X <.q.q.q.q.q.q.q.q.q.q.q.5.    _ _  .=   a 9.q.q.q.q.q.q.q.q.q.q.q.q.0.>   = a. .} } } } } } } } } T     n 0.q.q.q.q.q.7.    } z.a.e. .] _ ) ) ) ) _ &   X ;.q.q.q.q.q.q.7.    _ 4.w.=   3 2.q.q.h   = } E E     ;.0.q.q.q.q.7.    e.u.f.j.l.x.x.z.k.f.u.e.&   7 a.r.#.q.q.q.q.q.5.    _ _ _ _ _ _ _ _ _ _ _ } &   7 u.r.#.q.q.q.q.q.q.m      .d.s.r.w. .} _ _ _ _ ) )     s 9.q.q.q.q.q.5.     .d.u. .} _ _ ) ) ) _ _ _ _ T     n 0.q.q.q.q.x   = v.x.l.k.h.u.r.w. . .} _ _  .=   # 1.q.q.q.q.q.q.q.q.q.q.q.q.q.q.q.q.q.q.q.q.q.q.q.q.q.q.q.q.q.q.",
"q.-.  & M.m.n.b.h.d.u.y. .} _ w.,. .e.O   v 1.q.q.q.q.q.q.q.q.q.q.X.. u  .|  ._   1 Q 2.q.q.q.q.q.q.q.q.q.q.q.q.<.X   O 0 0 0 9 9 9 7  .} } } 9   | V 0.q.q.q.q.q.Z     E w.| _ ) ) ) E _ ) ) _ +   v 1.q.q.q.q.q.+.  7 z.h.a.e.  t B 3.8.@   _ ) ^ ) 7   ~ V 0.q.q.q.+.  F j.l.z.c.9 t 9 9 7 7 7 X   & Y T a.N 0.q.q.q.q.+.  S ) _ )  .9 t t 9 9 8 7 O   & U I u.N 9.q.q.q.q.8.    d.b.c.z.k.h.a.e. . ._ _ _ _ )     n q.q.q.q.q.+.  7 n.c.l.a.& = & = = = & | _ _ _ 9   { M q.q.q.0.#   z.M.m.n.Y 1 7 7 = = = K y.w.w._   t N 2.q.q.q.q.q.q.q.q.q.q.q.q.q.q.q.q.q.q.q.q.q.q.q.q.q.q.q.q.q.",
"q.X.  S M.m.m.b.              a.a.u.p.0   e.N 2.q.q.q.q.q.q.q.q.q.X.  u a.t.y.,.  t h.W 0.q.q.q.q.q.q.q.q.q.q.q.q.<.>                  .} } } 0   w.u.#.q.q.q.q.q.0.f                    ._ _ _ 9   e.N 2.q.q.q.q.X.  9 n.v.z.d.  9 h.W <.@   } _ _ ) 7   y.p.#.q.q.q.X.  F c.c.v.v.                1 T Y T T / 3.q.q.q.q.X.  S _ _ _ w.                = I I I I / 3.q.q.q.q.O.  t N.M.m.x.= 7 = 7 1 = &  ._ _ _ 7   >.V 0.q.q.q.X.  9 N.n.b.h.               .w.e. .9   w.r.#.q.q.9.@   c.M.M.M.G             S l.h.h.e.  9 f.N 0.q.q.q.q.q.q.q.q.q.q.q.q.q.q.q.q.q.q.q.q.q.q.q.q.q.q.q.q.",
"q.X.  F M.M.m.b.  & u y u &   l.l.k.k.0   w.d.V q.q.q.q.q.q.q.q.q.X.  S k.j.h.u.  t g.t.*.q.q.q.q.q.q.q.q.q.q.q.q.0.&.r G G G G K =   u.} |  .t   e.d.W 0.q.q.q.q.q.q.#.8 S S u S u =   u.r. . .t   w.d.C 0.q.q.q.X.  9 N.M.n.l.  = Y T < X   } _ _ _ 9   y.g.Q 0.q.q.X.  S n.n.n.b.  O 7 7 7 8 7 t Y Y T Y ! x q.q.q.q.q.X.  G w.} _ e.  O 7 7 7 8 7 t I I I I Y x q.q.q.q.q.X.  t N.M.M.v.               .} _ _ 9   e.p.$.q.q.q.X.  9 N.M.M.x.  & G S S =   d.h.h.d.t   w.a.N 0.q.9.@   c.m.m.M.I   u F S u   F b.c.c.h.  9 d.w.#.q.q.q.q.q.q.q.q.q.q.q.q.q.q.q.q.q.q.q.q.q.q.q.q.q.q.q.q.",
"q.X.  G M.n.m.n.  7 d.a.d.7   c.b.v.v.t   w.u.` 3.q.q.q.q.q.q.q.q.X.  S v.x.x.h.  t d.g.Q 0.q.q.q.q.q.q.q.q.q.q.q.&.                  d.a.y.u.t   e.d.p.*.q.q.q.q.q.7.6 X               j.h.d.u.t   w.u.` 3.q.q.q.X.  t N.N.N.c.              e.w. . .9   y.d.p.%.q.q.X.  S m.m.m.n.                  K T ) k 3.q.q.q.q.q.X.  G d.r. .u.                  S I Y z 2.q.q.q.q.q.X.  u M.n.M.v.  0 a.u.u.9   y.r. . .9   y.d.Q 0.q.q.X.  t N.M.M.c.              z.v.v.c.u   w.a.4.#.q.8.#   c.M.m.M.U             G m.m.m.z.  9 d.s.N q.q.q.q.q.q.q.q.q.q.q.q.q.q.q.q.q.q.q.q.q.q.q.q.q.q.q.q.",
"q.o.  G M.M.M.n.  7 s.a.d.7   b.m.n.M.S   w.a.d.*.q.q.q.q.q.q.q.q.+.  t m.n.n.h.  l d.d.' 0.q.q.q.q.q.q.q.q.q.q.&.    u } } _ _ ) _ T l.j.j.l.=   u.g.g.#.q.q.q.q.7.<         .         z.x.z.l.u   w.a.f.#.q.q.q.=.  = N.M.M.n.} } } } _ ) ) k.h.d.d.&   a.d.g.#.q.q.=.  7 N.M.M.m.}  . .} }  .} S     D h 1.q.q.q.q.q.q.=.  t c.j.d.d.S G S S S u u 9     D x 3.q.q.q.q.q.q.X.  u v.b.b.v.  7 d.d.g.9   h.h.d.a.9   y.d.y.%.q.q.=.  = N.M.M.n.}  .} }  .} } n.m.M.M.7   e.a.s.#.q.0.<   z.m.m.M.h. .}  .} }  .h.m.m.m.l.  t a.a.` 9.q.q.q.q.q.q.q.q.q.q.q.q.q.q.q.q.q.q.q.q.q.q.q.q.q.q.q.",
"q.5.    v.m.M._   S a.a.u.S   _ M.m.c.    _ a.s.#.q.q.q.q.q.q.q.q.8.    ) M.x..   O u.d.' 0.q.q.q.q.q.q.q.q.q.=.    S M.n.n.n.n.b.b.v.c.c.v.S   X h.d.h.#.q.q.q.0.6     c.M.N.M.M.M.M.M.n.b.v.l.    d.a.s.#.q.q.q.9.    G N.M.M.N.M.M.N.M.M.m.n.b.v.t     S h.g.#.q.q.8.    K N.M.M.M.M.M.M.M.M.M.N.K     #.q.q.q.q.q.q.q.7.    U b.x.l.d.a.e. .} _ ] _ u     @.q.q.q.q.q.q.q.=.  8 l.l.c.l.  t h.d.h.0   l.v.x.c.=   s.d.h.#.q.q.8.    S N.m.M.M.M.N.N.N.N.N.N.N.N.Y     1 d.d.#.0.q.M     v.m.m.m.m.m.m.M.m.m.m.m.m.v.       .a.( 9.q.q.q.q.q.q.q.q.q.q.q.q.q.q.q.q.q.q.q.q.q.q.q.q.q.q.q.",
"q.0.6     c._     * s.a.a.d.X   _ v.      . e.s.#.q.q.q.q.q.q.q.q.0.x     f.        O a.' 0.q.q.q.q.q.q.q.q.8.-   u N.M.M.m.m.n.n.n.n.n.n.S     y.d.d.h.#.q.q.q.5.    c.M.M.M.M.m.M.m.m.m.m.x.    9 u.a.d.#.q.q.q.0.&.    K N.M.M.M.M.M.M.M.M.N.M.}         F j.#.q.q.q.&.    G N.M.M.M.M.N.M.M.M.M.N.G     #.q.q.q.q.q.q.q.#.    w.b.c.c.z.j.d.u.e. .} } u     #.q.q.q.q.q.q.7.    S h.h..   K d.d.s.)     b.M.S     F h.h.#.q.q.0.#.     .m.m.M.M.M.N.N.N.N.N.N.d.    =   u g.#.q.q.8.<   . v.m.m.m.m.m.m.m.m.m.m.N.    O O   y.` 9.q.q.q.q.q.q.q.q.q.q.8.5.5.q.q.q.q.q.q.q.q.q.q.q.q.q.q.",
"q.q.#.    k._   . X & d.u.f..   _ c.    t   . ,.#.q.q.q.q.q.q.q.q.5.    ) N.c.        O h 0.q.q.q.q.q.q.q.0.a   & M.m.m.m.m.M.m.m.M.m.M.G     y.d.d.d.' 2.q.q.q.5.    c.M.M.M.M.M.N.M.m.M.M.x.    8 U y.4.#.q.q.q.q.q.&.    K N.M.M.M.M.M.N.M.M.M.N.l   .     , 1.q.q.q.q.&.    S N.M.M.M.M.M.M.M.M.M.N.G     -.q.q.q.q.q.0.i   = N.M.n.n.b.v.x.z.k.h.a.y.w.S     ;.q.q.q.q.q.q.&.    t O   = T | d.a.z.&   O y.        S j.#.q.q.0.p   & M.m.m.m.M.M.N.N.N.N.N.N.N.T   & 8   q <.q.q.q.8.<     v.m.M.m.m.m.M.m.M.m.n.v.    G   & c q.q.q.q.q.q.q.q.q.q.-.X     1 ;.q.q.q.q.q.q.q.q.q.q.q.q.",
"q.8.    _ v.n._   u O & d.K   _ M.m.v.     .. . 8.q.q.q.q.q.q.q.q.+.  t N.M.M.k.  S 7   +.q.q.q.q.q.q.q.q.5.    c.n.n.n. . . . . .}  .S     u.d.d.d.h.Q q.q.q.q.0.3     x.M.N.M.M.M.M.N.M.n.n.v.    T U ~ 9.q.q.q.q.q.0.&.    S  . . . . . .} n.m.m.N.=   _   ; 9.q.q.q.q.0.&.    u }  . . . . .} M.M.M.N.9   k 2.q.q.q.q.5.    n.N.M.M.} | } } _ _ T x.l.j.h.9   k 2.q.q.q.q.q.0.&.      7 ! Y U  .' J     n.N.S         , 1.q.q.5.    c.m.m.n.}  . . . .w. .N.N.N.N.u   u.&   9.q.q.q.q.8.>      .| }  .} } } h.m.M.m.l.  u _   C q.q.q.q.q.q.q.q.q.=.    & + . . -.q.q.q.q.q.q.q.q.q.q.q.",
"q.=.  = l.z.c.v.  7 a.0 j.u   n.m.m.M.G    .R s 0.q.q.q.q.q.q.q.q.X.  F m.m.m.x.  0 h./ 9.q.q.q.q.q.q.q.q.X.  t b.b.b.x.                O y.d.d.d.h.W 2.q.q.q.q.q.8.<                   v.M.M.M.u   K E c 0.q.q.q.q.q.q.q.*..       .         c.n.n.b.u   y.s.@.q.q.q.q.q.q.q.#.                  n.M.M.N.S   e.b 2.q.q.q.X.  F N.N.N.m.              v.v.v.c.S   e.N 2.q.q.q.q.q.0.=.  . = E T Y K X.@   c.N.N.N.=   _   > 0.q.q.X.  9 M.m.n.c.              N.N.N.N.T   4.u.o.0.q.q.q.q.q.7.>                 U M.m.M.c.  9 d.P 8.q.q.q.q.q.q.q.q.9.X   = 4. .=   > 7.q.q.q.q.q.q.q.q.q.q.",
"q.X.  u u.h.k.x.  7 d.s.h.u   b.m.M.M.G   w.d.M 0.q.q.q.q.q.q.q.q.X.  S b.b.v.l.  e g.i.*.q.q.q.q.q.q.q.q.X.  t z.l.l.l.                & a.d.d.h.W 1.q.q.q.q.q.q.q.8.6                 v.M.M.N.t   K a.M q.q.q.q.q.q.q.q.0.=.* 9 9 7 8 9 .   c.v.c.x.l   y.g.Q 0.q.q.q.q.q.q.q.&.*               n.M.M.N.F   w.d.B 0.q.q.X.  u m.m.M.m.              n.M.m.M.S   w.d.b 0.q.q.q.q.q.q.=.  . = E K c 8.#   b.N.N.N.u   u.s.@.0.q.q.X.  9 v.c.v.z.  = S S S =   N.N.N.N.)   w.s.b 0.q.q.q.q.q.q.7.a G S F S S S   K M.m.m.c.  9 a.w.$.q.q.q.q.q.q.q.q.5.  & w.} } w.O . n 2.q.q.q.q.q.q.q.q.q.",
"q.X.  u  .r.a.h.  & t u u 1   n.m.m.M.F   ,.a.' 9.q.q.q.q.q.q.q.q.X.  S l.z.z.d.  t d.h.C q.q.q.q.q.q.q.q.X.  0 u.u.a.a.                  O a.h.W 1.q.q.q.q.q.q.q.q.0.#.&               v.M.M.N.t    .a.' 0.q.q.q.q.q.q.q.q.q.1.4 U I I U &   x.x.z.l.u   y.d.[ 2.q.q.q.q.q.q.<.;                 n.M.M.N.G   w.a.( 2.q.q.X.  t c.v.n.v.              m.N.M.M.G   w.a.( 3.q.q.q.q.q.q.q.=.  . = x 0.9.o   b.N.N.N.u   y.f.Q 0.q.q.X.  7 j.j.l.h.              M.N.N.N.T   w.a.` 1.q.q.q.q.q.0.Z                 G M.m.m.c.  t a.s.V 0.q.q.q.q.q.q.q.5.  u e.w.w. .0   u.B 3.q.q.q.q.q.q.q.q.",
"q.X.  u  .| w.d.              n.m.m.M.G   w.a.w.*.q.q.q.q.q.q.q.q.X.  S d.d.d.e.  t g.d.] 9.q.q.q.q.q.q.q.+.  t } } } 4.7 9 t 9 9 9 9 O     & b 1.q.q.q.q.q.q.q.q.0.g                   c.m.M.N.u   w.u.w.#.q.q.q.q.q.q.q.q.q.q.<.w R T T &   z.l.j.h.S   y.d.h.#.q.q.q.q.q.<.X   . = = = 7 7 8 7 b.M.M.N.S   w.a.d.#.q.q.+.  9 h.l.x.x.7 9 t t t u t M.N.N.N.K   w.a.f.#.q.q.q.q.q.q.q.q.<.#.#.0.q.9.#   v.N.N.N.u   r.d.[ 2.q.q.+.  9 r.y.u.a.7 7 7 8 9 t 9 M.N.N.N.Y   w.a.d.#.q.q.q.q.q.g     7 7 7 7 7 8 9 _ m.m.m.c.  9 d.a.` 0.q.q.q.q.q.q.q.5.  F b.v.b.b.u . y.h.A q.q.q.q.q.q.q.q.",
"q.-.  & e. . .w. .y.a.h.l.z.z.n.m.m.M.=   a.a.s.#.q.q.q.q.q.q.q.q.5.     . .u.=   S d.d.` 0.q.q.q.q.q.q.q.8.    ) } } } } } }  . .y.u.j.=   X -.0.q.q.q.q.q.q.q.q.Z     K _  .y.d.h.j.j.n.M.m.M.+   u.a.d.#.q.q.q.q.q.q.q.q.q.q.q.2.#.%.%.6   7 l.h.e.    p.d.h.#.q.q.q.q.9.;   & } _ } w.u.h.x.b.b.m.m.l.    h.a.s.#.q.q.7.    _ u.d.k.v.n.m.N.N.N.N.N.N.N.x.    d.a.d.#.q.q.q.q.q.q.q.q.q.q.q.q.q.0.o   c.M.N.N.t   y.f.g.#.q.q.8.    )  . .e.u.d.k.c.b.n.M.M.N.N.x.    y.a.s.@.q.q.q.q.&.    _ s.h.j.l.x.c.v.b.n.n.M.7   u a.a.` 0.q.q.q.q.q.q.q.7.  S l.z.z.z.t   y.d.:.0.q.q.q.q.q.q.q.",
"q.0.>   & e. . .w.u.h.z.c.n.n.m.m.M.7   & ) a.s.#.q.q.q.q.q.q.q.q.q.s     ) =   O T _ g.` 0.q.q.q.q.q.q.q.q.V     T } } } } } } } }  .,.a.+   x 3.q.q.q.q.q.q.q.5.    T } } e.d.k.x.v.n.n.m.M.=   9 s.a.s.#.q.q.q.q.q.q.q.q.q.q.q.q.q.q.q.<.    7  .    S U e.h.#.q.q.q.q.<.  O _ ) _ _ _ } e.a.j.x.b.h.    _ a.a.s.#.q.q.0.m     _ w.s.j.z.v.n.m.M.N.N.N.x.    _ a.a.s.#.q.q.q.q.q.q.q.q.q.q.q.q.q.q.h   7 n.N.h.    u.f.g.#.q.q.0.m     )  . .w.e.p.d.l.x.v.n.M.l.    u G e.s.#.q.q.q.q.3   I  . .r.y.a.g.j.z.c.b.m.7   O U ) a.` 0.q.q.q.q.q.q.q.8.  u d.d.d.h.e   y.d.[ 0.q.q.q.q.q.q.q.",
"q.q.-.X   & w. . . .y.s.k.x.v.n.m.1   O K I ) f.#.q.q.q.q.q.q.q.q.q.0.a       O T U T _ W 0.q.q.q.q.q.q.q.q.9.s     T } } } } } } } } _ }     k.N 3.q.q.q.q.q.q.<.  O } } }  .w.s.j.z.c.b.m.7   & u.a.a.f.#.q.q.q.q.q.q.q.q.q.q.q.q.q.q.q.q.=.        u Y Y U { $.q.q.q.q.7.    R E ^ _ _ _ } w.u.h.y.    ) a.a.a.w.%.q.q.q.9.s     _ e.d.l.c.v.m.m.M.N.z.    ) s.a.a.4.%.q.q.q.q.q.q.q.q.q.q.q.q.q.q.<.    7 y.    S U e.h.#.q.q.q.9.s     )  . . .,.u.a.j.z.c.h.    t I I K } $.q.q.q.q.x   = u.e.p.s.d.h.l.x.c.n.=   . K I I ) N q.q.q.q.q.q.q.q.7.    }  .w.}     a.g.[ q.q.q.q.q.q.q.q.",
"q.q.q.=.X   &  .} } } w.p.d.z.c.=   . K I I I l 3.q.q.q.q.q.q.q.q.q.q.0.Z     ^ T T U K @.q.q.q.q.q.q.q.q.q.q.9.s     Y  . .}  . . . .)     ] d.h.C q.q.q.q.q.q.9.>   & | } }  .t.d.k.x.v.=   X p.a.a.a.` 3.q.q.q.q.q.q.q.q.q.q.q.q.q.q.q.q.q.<.>   u Y T T Y w 9.q.q.q.q.0.m     I _ _ _ _ }  .,.)     u } a.a.a.N 0.q.q.q.q.9.a     ) a.j.x.c.b.n.n.h.    u _ a.a.a.N 0.q.q.q.q.q.q.q.q.q.q.q.q.q.q.q.-.        u U T U } %.q.q.q.q.0.s     T  .w. .e.r.u.d. .    t I I I I 2 9.q.q.q.q.7.    = d.g.j.k.l.x.c.b.7   O I L I I S ..q.q.q.q.q.q.q.q.0.6     Y T     S E y.{ 0.q.q.q.q.q.q.q.",
"q.q.q.q.=.    & u u u t u u S & . . I I I I I s 0.q.q.q.q.q.q.q.q.q.q.q.0.f   O R Y E v 0.q.q.q.q.q.q.q.q.q.q.q.9.a                       ) d.d.d.:.3.q.q.q.q.q.q.;.X   + t y u u u u S &   O T T u.a.d.C 0.q.q.q.q.q.q.q.q.q.q.q.q.q.q.q.q.q.q.1.X   G Y Y ^ #.0.q.q.q.q.q.9.d                       u T U } a.t.#.q.q.q.q.q.q.9.p                       t I K _ s.r.#.q.q.q.q.q.q.q.q.q.q.q.q.q.q.q.q.q.;.>   t T T T Y w 9.q.q.q.q.q.9.p                       t I I I I S X.q.q.q.q.q.q.=..                     X I I I K U q 8.q.q.q.q.q.q.q.q.q.9.6         u ) ) T ~ 0.q.q.q.q.q.q.q.",
"q.q.q.q.0.=.X                   & I I I I U 4 1.q.q.q.q.q.q.q.q.q.q.q.q.q.0.d   O K v 1.q.q.q.q.q.q.q.q.q.q.q.q.q.9.f                   | d.d.d.g.Q 0.q.q.q.q.q.q.0.-.;                   = Y T Y T a.N 2.q.q.q.q.q.q.q.q.q.q.q.q.q.q.q.q.q.q.q.q.-.    G H m 0.q.q.q.q.q.q.q.0.#.                  U Y T T U _ M q.q.q.q.q.q.q.q.9.f                   Y I I I L ) V 0.q.q.q.q.q.q.q.q.q.q.q.q.q.q.q.q.q.q.<.X   u T Y ! #.q.q.q.q.q.q.q.0.d                   t I I I K F h 0.q.q.q.q.q.q.q.7.>                   T I I I I 4 <.q.q.q.q.q.q.q.q.q.q.q.9.m -   t ) ^ ) ) j 0.q.q.q.q.q.q.q.",
"q.q.q.q.q.q.=.X                 & U I I I 4 <.q.q.q.q.q.q.q.q.q.q.q.q.q.q.q.0...6 n 0.q.q.q.q.q.q.q.q.q.q.q.q.q.q.q.9.f                 O s.d.d.p.%.q.q.q.q.q.q.q.q.q.8.<                 K Y Y T T j 2.q.q.q.q.q.q.q.q.q.q.q.q.q.q.q.q.q.q.q.q.q.q.<.x < =.q.q.q.q.q.q.q.q.q.q.0.A                 & ^ T U L c 0.q.q.q.q.q.q.q.q.q.9.g                 + T I I F c 9.q.q.q.q.q.q.q.q.q.q.q.q.q.q.q.q.q.q.q.q.;.    S H V 0.q.q.q.q.q.q.q.q.9.d                   G K I G h 0.q.q.q.q.q.q.q.q.q.7.X                 & Y I I 4 1.q.q.q.q.q.q.q.q.q.q.q.q.q.q.7.    S ) E ^ #.q.q.q.q.q.q.q.q.",
"q.q.q.q.q.q.q.-.X                 + Y U 4 <.q.q.q.q.q.q.q.q.q.q.q.q.q.q.q.q.q.q.0.q.q.q.q.q.q.q.q.q.q.q.q.q.q.q.q.q.q.0.g                 O d.' V 0.q.q.q.q.q.q.q.q.q.q.<.o                 G Y R j <.q.q.q.q.q.q.q.q.q.q.q.q.q.q.q.q.q.q.q.q.q.q.q.q.q.q.q.q.q.q.q.q.q.q.q.q.q.q.9.g                 & ) l c 0.q.q.q.q.q.q.q.q.q.q.q.0.g                 & ) y c q.q.q.q.q.q.q.q.q.q.q.q.q.q.q.q.q.q.q.q.q.q.q.<.x < =.q.q.q.q.q.q.q.q.q.q.q.9.f                   K t x 0.q.q.q.q.q.q.q.q.q.q.q.-.X                 & G q 1.0.q.q.q.q.q.q.q.q.q.q.q.q.q.q.q.;.    S H V 0.q.q.q.q.q.q.q.q.",
"q.q.q.q.q.q.q.q.;.<                 + s <.q.q.q.q.q.q.q.q.q.q.q.q.q.q.q.q.q.q.q.q.q.q.q.q.q.q.q.q.q.q.q.q.q.q.q.q.q.q.q.0.&.< # # # # # # # i 1.q.q.q.q.q.q.q.q.q.q.q.q.0.<.<                 t g 1.q.q.q.q.q.q.q.q.q.q.q.q.q.q.q.q.q.q.q.q.q.q.q.q.q.q.q.q.q.q.q.q.q.q.q.q.q.q.q.q.0.&.6 # # # # # # # i ;.0.q.q.q.q.q.q.q.q.q.q.q.q.q.0.&.< # # # # # # # p -.q.q.q.q.q.q.q.q.q.q.q.q.q.q.q.q.q.q.q.q.q.q.q.q.q.q.0.q.q.q.q.q.q.q.q.q.q.q.q.q.0.&.6 % % % % % % % 3 -.0.q.q.q.q.q.q.q.q.q.q.q.q.q.6.x $ % % % % % % % m 9.q.q.q.q.q.q.q.q.q.q.q.q.q.q.q.q.q.q.5.h g =.q.q.q.q.q.q.q.q.q.q.",
"q.q.q.q.q.q.q.q.q.0.5.5.5.5.5.5.5.5.6.0.q.q.q.q.q.q.q.q.q.q.q.q.q.q.q.q.q.q.q.q.q.q.q.q.q.q.q.q.q.q.q.q.q.q.q.q.q.q.q.q.q.q.0.0.9.9.9.9.9.9.0.q.q.q.q.q.q.q.q.q.q.q.q.q.q.q.9.-.O.O.O.O.O.+.+.<.0.q.q.q.q.q.q.q.q.q.q.q.q.q.q.q.q.q.q.q.q.q.q.q.q.q.q.q.q.q.q.q.q.q.q.q.q.q.q.q.q.q.q.q.0.9.8.9.9.9.9.9.q.q.q.q.q.q.q.q.q.q.q.q.q.q.q.q.q.q.0.9.9.9.9.9.9.8.q.q.q.q.q.q.q.q.q.q.q.q.q.q.q.q.q.q.q.q.q.q.q.q.q.q.q.q.q.q.q.q.q.q.q.q.q.q.q.q.q.q.q.q.0.9.9.9.9.9.9.0.0.q.q.q.q.q.q.q.q.q.q.q.q.q.q.q.q.q.0.9.9.8.8.9.9.0.0.q.q.q.q.q.q.q.q.q.q.q.q.q.q.q.q.q.q.q.q.q.q.q.q.q.q.q.q.q.q.q.q.q."
};
