/* XPM */
static char *start[] = {
/* columns rows colors chars-per-pixel */
"35 160 14 1 ",
"  c black",
". c #700000",
"X c #707870",
"o c #B02800",
"O c #F00000",
"+ c #F04000",
"@ c #008800",
"# c #00B800",
"$ c #00F800",
"% c #F08800",
"& c yellow",
"* c #C0C0C0",
"= c #C0C8C0",
"- c #F0F8F0",
/* pixels */
"&&&&&&&& &&&&&&&&&&&&&&&&&&&&&&&&&&",
"&&&&&& & & &&&&&&&&&&&&&&&&&&&&&&&&",
"&&&&&&&   &&&&&&&&&&&&&&&      &&&&",
"&&&&&&&oooo&&&&&&&&&&&&  o  &&*&&&&",
"&&&&&&o%%%%oo&&&&&&&&  o  &&&&*&&&&",
"&&&&&o   %%%  &&&&&& %% &&&&&&*&&&&",
"&&&&o --- % -- &&&& %% &&&&&&&*&&&&",
"&&&& ----- ---- && %% &&&&&&&&*&&&&",
"&&&& ----$-$--- & %% &&&&&&&&&*&&&&",
"&&&& ---$ $ $-- & % &&&&&&&&&&*&&&&",
"&&&&o --$ $ $- & %% &&&&&&&&&&*&&&&",
"&&&oo%   %%%  o& % &&&&&&&&&&&*&&&&",
"&&&o%%%%%%%o%%%o % &&&&&&&&&&&*&&&&",
"&&&o%%%%%%%%%%%o%% &&&&&&&&&&&*&&&&",
"&&&o%%%%%oo%%%%o% &&&&&&&&&&&&*&&&&",
"&&XXo%%%o%%o%%o % &&&&&&&&&        ",
"&X==-o%%%%%%%oX % X&&&&&&&&  ....  ",
"X==ooo ooooo ooo  -X&&&&&&& ..+... ",
"X=-%%%o     o%%%o---X&&&&&& .+.... ",
"X=--%%o##$##o%%%-----X&&&&& ...... ",
"X==---#-----#--------X&&&&& ...... ",
"&X=------------------X&&&&&  ....  ",
"&&X=----- - -------=X&&&&&&        ",
"&X=------ - ------=X&&&&&&&        ",
"X==----------------=X&&&&&&  ....  ",
"X==-----O---O------=X&&&&&& ..+... ",
"X===-----OOO------==X&&&&&& .+.... ",
"&X==------------===X&&&&&&& ...... ",
"&X===---==----===XX&&&&&&&& ...... ",
"&&X=====X======XX&&&&&&&&&&  ....  ",
"&&&XXXXX&XXXXXX&&&&&&&&&&&&        ",
"&&&&&&&&&&&&&&&&&&&&&&&&&&&        ",
"&&&&&&&&&&&&&&&&&&&&&&&&&&&  @@@@  ",
"&&&&&&&&&&&&&&&&&&&&&&&&&&& @@$@@@ ",
"&&&&&&&&&&&&&&&&&&&&&&&&&&& @$@@@@ ",
"&&&&&&&&&&&&&&&&&&&&&&&&&&& @@@@@@ ",
"&&&&&&&&&&&&&&&&&&&&&&&&&&& @@@@@@ ",
"&&&&&&&&&&&&&&&&&&&&&&&&&&&  @@@@  ",
"&&&&&&&&&&&&&&&&&&&&&&&&&&&        ",
"&&&&&&&&&&&&&&&&&&&&&&&&&&&&&&&&&&&",
"&&&&&&&& &&&&&&&&&&&&&&&&&&&&&&&&&&",
"&&&&&& & & &&&&&&&&&&&&&&&&&&&&&&&&",
"&&&&&&&   &&&&&&&&&&&&&&&      &&&&",
"&&&&&&&oooo&&&&&&&&&&&&  o  &&*&&&&",
"&&&&&&o%%%%oo&&&&&&&&  o  &&&&*&&&&",
"&&&&&o   %%%  &&&&&& %% &&&&&&*&&&&",
"&&&&o --- % -- &&&& %% &&&&&&&*&&&&",
"&&&& ----- ---- && %% &&&&&&&&*&&&&",
"&&&& ----$-$--- & %% &&&&&&&&&*&&&&",
"&&&& ---$ $ $-- & % &&&&&&&&&&*&&&&",
"&&&&o --$ $ $- & %% &&&&&&&&&&*&&&&",
"&&&oo%   %%%  o& % &&&&&&&&&&&*&&&&",
"&&&o%%%%%%%o%%%o % &&&&&&&&&&&*&&&&",
"&&&o%%%%%%%%%%%o%% &&&&&&&&&&&*&&&&",
"&&&o%%%%%oo%%%%o% &&&&&&&&&&&&*&&&&",
"&&XXo%%%o%%o%%o % &&&&&&&&&        ",
"&X==-o%%%%%%%o& % X&&&&&&&&  .++.  ",
"X==ooo ooooo ooo  -X&&&&&&& .+-++. ",
"X=-%%%o     o%%%o---X&&&&&& +-++++ ",
"X=--%%o##$##o%%%-----X&&&&& ++++++ ",
"X==---#-----#--------X&&&&& .++++. ",
"&X=------------------X&&&&&  .++.  ",
"&&X=----- - -------=X&&&&&&        ",
"&X=------ - ------=X&&&&&&&        ",
"X==----------------=X&&&&&&  ....  ",
"X==-----O---O------=X&&&&&& ..+... ",
"X===-----OOO------==X&&&&&& .+.... ",
"&X==------------===X&&&&&&& ...... ",
"&X===---==----===XX&&&&&&&& ...... ",
"&&X=====X======XX&&&&&&&&&&  ....  ",
"&&&XXXXX&XXXXXX&&&&&&&&&&&&        ",
"&&&&&&&&&&&&&&&&&&&&&&&&&&&        ",
"&&&&&&&&&&&&&&&&&&&&&&&&&&&  @@@@  ",
"&&&&&&&&&&&&&&&&&&&&&&&&&&& @@$@@@ ",
"&&&&&&&&&&&&&&&&&&&&&&&&&&& @$@@@@ ",
"&&&&&&&&&&&&&&&&&&&&&&&&&&& @@@@@@ ",
"&&&&&&&&&&&&&&&&&&&&&&&&&&& @@@@@@ ",
"&&&&&&&&&&&&&&&&&&&&&&&&&&&  @@@@  ",
"&&&&&&&&&&&&&&&&&&&&&&&&&&&        ",
"&&&&&&&&&&&&&&&&&&&&&&&&&&&&&&&&&&&",
"&&&&&&&& &&&&&&&&&&&&&&&&&&&&&&&&&&",
"&&&&&& & & &&&&&&&&&&&&&&&&&&&&&&&&",
"&&&&&&&   &&&&&&&&&&&&&&&      &&&&",
"&&&&&&&oooo&&&&&&&&&&&&  o  &&*&&&&",
"&&&&&&o%%%%oo&&&&&&&&  o  &&&&*&&&&",
"&&&&&o   %%%  &&&&&& %% &&&&&&*&&&&",
"&&&&o --- % -- &&&& %% &&&&&&&*&&&&",
"&&&& ----- ---- && %% &&&&&&&&*&&&&",
"&&&& ----$-$--- & %% &&&&&&&&&*&&&&",
"&&&& ---$ $ $-- & % &&&&&&&&&&*&&&&",
"&&&&o --$ $ $- & %% &&&&&&&&&&*&&&&",
"&&&oo%   %%%  o& % &&&&&&&&&&&*&&&&",
"&&&o%%%%%%%o%%%o % &&&&&&&&&&&*&&&&",
"&&&o%%%%%%%%%%%o%% &&&&&&&&&&&*&&&&",
"&&&o%%%%%oo%%%%o% &&&&&&&&&&&&*&&&&",
"&&XXo%%%o%%o%%o % &&&&&&&&&        ",
"&X==-o%%%%%%%o& % X&&&&&&&&  .++.  ",
"X==ooo ooooo ooo  -X&&&&&&& .+-++. ",
"X=-%%%o     o%%%o---X&&&&&& +-++++ ",
"X=--%%o##$##o%%%-----X&&&&& ++++++ ",
"X==---#-----#--------X&&&&& .++++. ",
"&X=------------------X&&&&&  .++.  ",
"&&X=----- - -------=X&&&&&&        ",
"&X=------ - ------=X&&&&&&&        ",
"X==----------------=X&&&&&&  .++.  ",
"X==-----O---O------=X&&&&&& .+-++. ",
"X===-----OOO------==X&&&&&& +-++++ ",
"&X==------------===X&&&&&&& ++++++ ",
"&X===---==----===XX&&&&&&&& .++++. ",
"&&X=====X======XX&&&&&&&&&&  .++.  ",
"&&&XXXXX&XXXXXX&&&&&&&&&&&&        ",
"&&&&&&&&&&&&&&&&&&&&&&&&&&&        ",
"&&&&&&&&&&&&&&&&&&&&&&&&&&&  @@@@  ",
"&&&&&&&&&&&&&&&&&&&&&&&&&&& @@$@@@ ",
"&&&&&&&&&&&&&&&&&&&&&&&&&&& @$@@@@ ",
"&&&&&&&&&&&&&&&&&&&&&&&&&&& @@@@@@ ",
"&&&&&&&&&&&&&&&&&&&&&&&&&&& @@@@@@ ",
"&&&&&&&&&&&&&&&&&&&&&&&&&&&  @@@@  ",
"&&&&&&&&&&&&&&&&&&&&&&&&&&&        ",
"&&&&&&&&&&&&&&&&&&&&&&&&&&&&&&&&&&&",
"&&&&&&&& &&&&&&&&&&&&&&&&&&&&&&&&&&",
"&&&&&& & & &&&&&&&&&&&&&&&&&&&&&&&&",
"&&&&&&&   &&&&&&&&&&&&&&&&&&&&&&&&&",
"&&&&&&&oooo&&&&&&&&&&&&&&      &&&&",
"&&&&&&o%%%%oo&&&&&&&&&&  o  &&*&&&&",
"&&&&&o   %%%  &&&&&&&  o  &&&&*&&&&",
"&&&&o --- % -- &&&&& %% &&&&&&*&&&&",
"&&&& ----- ---- &&& %% &&&&&&&*&&&&",
"&&&& ----$-$--- && %% &&&&&&&&*&&&&",
"&&&& ---$ $ $-- & %% &&&&&&&&&*&&&&",
"&&&&o --$ $ $- && % &&&&&&&&&&*&&&&",
"&&&oo%   %%%  o& %% &&&&&&&&&&*&&&&",
"&&&o%%%%%%%o%%%o % &&&&&&&&&&&*&&&&",
"&&&o%%%%%--%%%%o % &&&&&&&&&&&*&&&&",
"&&&o%%%%   %%%%o%% &&&&&&&&&&&*&&&&",
"&ooo%%%%   %%%%o% &&&&&&&&&&&&*&&&&",
"o%%%o%%%%  %%%o % &&&&&&&&&        ",
"o%%%%o%%%%%%%o& % X&&&&&&&&  .++.  ",
"&o%%%% ooooo ooo  -X&&&&&&& .+-++. ",
"X=o%%%o     o%%%o---X&&&&&& +-++++ ",
"X=-oo%o##$##o%%%-----X&&&&& ++++++ ",
"X==--o#-----#--------X&&&&& .++++. ",
"&X=------------------X&&&&&  .++.  ",
"&&X=----- - -------=X&&&&&&        ",
"&X=------ - ------=X&&&&&&&        ",
"X==----------------=X&&&&&&  .++.  ",
"X==-------O--------=X&&&&&& .+-++. ",
"X===-----OOO------==X&&&&&& +-++++ ",
"&X===-----O-----===X&&&&&&& ++++++ ",
"&X===--==-----===XX&&&&&&&& .++++. ",
"&&X====X=======XX&&&&&&&&&&  .++.  ",
"&&&XXXX&XXXXXXX&&&&&&&&&&&&        ",
"&&&&&&&&&&&&&&&&&&&&&&&&&&&        ",
"&&&&&&&&&&&&&&&&&&&&&&&&&&&  @$$@  ",
"&&&&&&&&&&&&&&&&&&&&&&&&&&& @$-$$@ ",
"&&&&&&&&&&&&&&&&&&&&&&&&&&& $-$$$$ ",
"&&&&&&&&&&&&&&&&&&&&&&&&&&& $$$$$$ ",
"&&&&&&&&&&&&&&&&&&&&&&&&&&& @$$$$@ ",
"&&&&&&&&&&&&&&&&&&&&&&&&&&&  @$$@  ",
"&&&&&&&&&&&&&&&&&&&&&&&&&&&        "
};
