/* XPM */
static char *toad[] = {
/* columns rows colors chars-per-pixel */
"32 96 15 1 ",
"  c #002828",
". c #780000",
"X c #284848",
"o c #486868",
"O c gray47",
"+ c #A00000",
"@ c #F80000",
"# c #A87858",
"$ c #33FF33",
"% c #60F860",
"& c #0000E0",
"* c #0080F8",
"= c #E0A888",
"- c #C8E8E8",
"; c #F8F8F8",
/* pixels */
"$$$$$$$$$$$$$$$$$$$$$$$$$$$$$$$$",
"$$$$$$$$$$$$$$    $$$$$$$$$$$$$$",
"$$$$$$$$$$$$  @@@@  $$$$$$$$$$$$",
"$$$$$$$$$$  ;@@@@@@;  $$$$$$$$$$",
"$$$$$$$$$ ;;;@@@@@@;;; $$$$$$$$$",
"$$$$$$$$ @@;;;@@@@;;;@@ $$$$$$$$",
"$$$$$$$$ @@;;;;;;;;;;@@ $$$$$$$$",
"$$$$$$$ @@@;;;;;;;;;;@@@ $$$$$$$",
"$$$$$$$ @@;;;;;@@;;;;;@@ $$$$$$$",
"$$$$$$$ @@;;;;@@@@;;;;@@ $$$$$$$",
"$$$$$$$ @;;;;@@@@@@;;;;@ $$$$$$$",
"$$$$$$$ -;;;;@@@@@@;;;;- $$$$$$$",
"$$$$$$$$ -;;;@@@@@@;;;- $$$$$$$$",
"$$$$$$$$ --;;;@@@@;;;-- $$$$$$$$",
"$$$$$$$$$ -----@@----- $$$$$$$$$",
"$$$$$$$$$$  --------  $$$$$$$$$$",
"$$$$$$$$$$$          $$$$$$$$$$$",
"$$$$$$$$$$ =********= $$$$$$$$$$",
"$$$$$$$$$ ==&&&&&&&&== $$$$$$$$$",
"$$$$$$$$ ==#&      &#== $$$$$$$$",
"$$$$$$$$ ##  @@@@@@  ## $$$$$$$$",
"$$$$$$     @@++++++@@     $$$$$$",
"$$$$$ oo-- XXXXXXXXXX --oo $$$$$",
"$$$     -              -     $$$",
"$$ ooooo   ----------   ooooo $$",
"$$ XXXXX .- ..++++.. -. XXXXX $$",
"$$       -- -------- --       $$",
"$$       %- ........ -%       $$",
"$$       @- %......% -@       $$",
"$$       +++--------+++       $$",
"$$$     $              $     $$$",
"$$$$$$$$$$$$$$$$$$$$$$$$$$$$$$$$",
"$$$$$$$$$$$$$$$$$$$$$$$$$$$$$$$$",
"$$$$$$$$$$$$$$$$   $$$$$$$$$$$$$",
"$$$$$$$$$$$$$$  @@@  $$$$$$$$$$$",
"$$$$$$$$$$$$  @@@@@;;  $$$$$$$$$",
"$$$$$$$$$$$ ;@@@@@;;;;; $$$$$$$$",
"$$$$$$$$$$ @;;@@;;;;;@@@ $$$$$$$",
"$$$$$$$$$ @@;;;;;;;;@@@@ $$$$$$$",
"$$$$$$$$$ @;;;;;;;;@@@@@@ $$$$$$",
"$$$$$$$$$ ;;@@;;;;;@@@@@@ $$$$$$",
"$$$$$$$$$ ;@@@@;;;;;@@@@@ $$$$$$",
"$$$$$$$$$ @@@@@@;;;;;@@@- $$$$$$",
"$$$$$$$$$ @@@@@@;;;;;;;- $$$$$$$",
"$$$$$$$$$$ @@@@@;;;;;;;- $$$$$$$",
"$$$$$$$$$$ @@@@;;;;;;-- $$$$$$$$",
"$$$$$$$$$$$ @@;;;;---  $$$$$$$$$",
"$$$$$$$$$$$$ -----   = $$$$$$$$$",
"$$$$$$$$$$$       *   $$$$$$$$$$",
"$$$$$$$$$$ =&&*****== $$$$$$$$$$",
"$$$$$$$$$ =&&&&&&&&=== $$$$$$$$$",
"$$$$$$$$       &&&&#=== $$$$$$$$",
"$$$$$$$$ @@@@@@ &&&##==# $$$$$$$",
"$$$$$$$ @++++++@ && ###     $$$$",
"$$$         XXXXX &&   ; ooo $$$",
"$$ oooo ----       && ---XXXO$$$",
"$$ XXXXO ..+-----           O$$$",
"$$     - ---++.. -O ooooX   O$$$",
"$$     % ...---- -- XXXXOX  O$$$",
"$$     @ %...... -%     XX   $$$",
"$$     ++---...% -@     -X $$$$$",
"$$$    $    ----+++     OX $$$$$",
"$$$$$$$$$$$$      $       $$$$$$",
"$$$$$$$$$$$$$$$$$$$$     $$$$$$$",
"$$$$$$$$$$$$$$$$$$$$$$$$$$$$$$$$",
"$$$$$$$$$$$$$   $$$$$$$$$$$$$$$$",
"$$$$$$$$$$$  @@@  $$$$$$$$$$$$$$",
"$$$$$$$$$  ;;@@@@@  $$$$$$$$$$$$",
"$$$$$$$$ ;;;;;@@@@@; $$$$$$$$$$$",
"$$$$$$$ @@@;;;;;@@;;@ $$$$$$$$$$",
"$$$$$$$ @@@@;;;;;;;;@@ $$$$$$$$$",
"$$$$$$ @@@@@@;;;;;;;;@ $$$$$$$$$",
"$$$$$$ @@@@@@;;;;;@@;; $$$$$$$$$",
"$$$$$$ @@@@@;;;;;@@@@; $$$$$$$$$",
"$$$$$$ -@@@;;;;;@@@@@@ $$$$$$$$$",
"$$$$$$$ -;;;;;;;@@@@@@ $$$$$$$$$",
"$$$$$$$ -;;;;;;;@@@@@ $$$$$$$$$$",
"$$$$$$$$ --;;;;;;@@@@ $$$$$$$$$$",
"$$$$$$$$$  ---;;;;@@ $$$$$$$$$$$",
"$$$$$$$$$ =   ----- $$$$$$$$$$$$",
"$$$$$$$$$$   *       $$$$$$$$$$$",
"$$$$$$$$$$ ==*****&&= $$$$$$$$$$",
"$$$$$$$$$ ===&&&&&&&&= $$$$$$$$$",
"$$$$$$$$ ===#&&&&       $$$$$$$$",
"$$$$$$$ #==##&&& @@@@@@ $$$$$$$$",
"$$$$     ### && @++++++@ $$$$$$$",
"$$$ ooo ;   && XXXXX         $$$",
"$$$OXXX--- &&       ---- oooo $$",
"$$$O           -----+.. OXXXX $$",
"$$$O   Xoooo O- ..++--- -     $$",
"$$$O  XOXXXX -- ----... %     $$",
"$$$   XX     %- ......% @     $$",
"$$$$$ X-     @- %...---++     $$",
"$$$$$ XO     +++----    $    $$$",
"$$$$$$       $      $$$$$$$$$$$$",
"$$$$$$$     $$$$$$$$$$$$$$$$$$$$"
};
